<svg aria-hidden="true" style="position: absolute; width: 0; height: 0; overflow: hidden;" version="1.1" xmlns="http://www.w3.org/2000/svg" xmlns:xlink="http://www.w3.org/1999/xlink">
<defs>
<symbol id="icon-twitter" viewBox="0 0 32 32">
<path fill="#1da1f2" style="fill: var(--color1, #1da1f2)" d="M31.939 6.092c-1.18 0.519-2.44 0.872-3.767 1.033 1.352-0.815 2.392-2.099 2.884-3.631-1.268 0.74-2.673 1.279-4.169 1.579-1.195-1.279-2.897-2.079-4.788-2.079-3.623 0-6.56 2.937-6.56 6.556 0 0.52 0.060 1.020 0.169 1.499-5.453-0.257-10.287-2.876-13.521-6.835-0.569 0.963-0.888 2.081-0.888 3.3 0 2.28 1.16 4.284 2.917 5.461-1.076-0.035-2.088-0.331-2.971-0.821v0.081c0 3.18 2.257 5.832 5.261 6.436-0.551 0.148-1.132 0.228-1.728 0.228-0.419 0-0.82-0.040-1.221-0.115 0.841 2.604 3.26 4.503 6.139 4.556-2.24 1.759-5.079 2.807-8.136 2.807-0.52 0-1.039-0.031-1.56-0.089 2.919 1.859 6.357 2.945 10.076 2.945 12.072 0 18.665-9.995 18.665-18.648 0-0.279 0-0.56-0.020-0.84 1.281-0.919 2.4-2.080 3.28-3.397z"></path>
</symbol>
<symbol id="icon-facebook" viewBox="0 0 32 32">
<path fill="#1877f2" style="fill: var(--color1, #1877f2)" d="M31.997 15.999c0-8.836-7.163-15.999-15.999-15.999s-15.999 7.163-15.999 15.999c0 7.985 5.851 14.604 13.499 15.804v-11.18h-4.062v-4.625h4.062v-3.525c0-4.010 2.389-6.225 6.043-6.225 1.75 0 3.581 0.313 3.581 0.313v3.937h-2.017c-1.987 0-2.607 1.233-2.607 2.498v3.001h4.437l-0.709 4.625h-3.728v11.18c7.649-1.2 13.499-7.819 13.499-15.804z"></path>
</symbol>
<symbol id="icon-instagram" viewBox="0 0 32 32">
<path fill="#e4405f" style="fill: var(--color1, #e4405f)" d="M16 0c-4.347 0-4.889 0.020-6.596 0.096-1.704 0.080-2.864 0.348-3.884 0.744-1.052 0.408-1.945 0.956-2.835 1.845s-1.439 1.781-1.845 2.835c-0.396 1.020-0.665 2.18-0.744 3.884-0.080 1.707-0.096 2.249-0.096 6.596s0.020 4.889 0.096 6.596c0.080 1.703 0.348 2.864 0.744 3.884 0.408 1.051 0.956 1.945 1.845 2.835 0.889 0.888 1.781 1.439 2.835 1.845 1.021 0.395 2.181 0.665 3.884 0.744 1.707 0.080 2.249 0.096 6.596 0.096s4.889-0.020 6.596-0.096c1.703-0.080 2.864-0.349 3.884-0.744 1.051-0.408 1.945-0.957 2.835-1.845 0.888-0.889 1.439-1.78 1.845-2.835 0.395-1.020 0.665-2.181 0.744-3.884 0.080-1.707 0.096-2.249 0.096-6.596s-0.020-4.889-0.096-6.596c-0.080-1.703-0.349-2.865-0.744-3.884-0.408-1.052-0.957-1.945-1.845-2.835-0.889-0.889-1.78-1.439-2.835-1.845-1.020-0.396-2.181-0.665-3.884-0.744-1.707-0.080-2.249-0.096-6.596-0.096zM16 2.88c4.271 0 4.78 0.021 6.467 0.095 1.56 0.073 2.407 0.332 2.969 0.553 0.749 0.289 1.28 0.636 1.843 1.195 0.559 0.56 0.905 1.092 1.195 1.841 0.219 0.563 0.48 1.409 0.551 2.969 0.076 1.688 0.093 2.195 0.093 6.467s-0.020 4.78-0.099 6.467c-0.081 1.56-0.341 2.407-0.561 2.969-0.299 0.749-0.639 1.28-1.199 1.843-0.559 0.559-1.099 0.905-1.84 1.195-0.56 0.219-1.42 0.48-2.98 0.551-1.699 0.076-2.199 0.093-6.479 0.093-4.281 0-4.781-0.020-6.479-0.099-1.561-0.081-2.421-0.341-2.981-0.561-0.759-0.299-1.28-0.639-1.839-1.199-0.561-0.559-0.92-1.099-1.2-1.84-0.22-0.56-0.479-1.42-0.56-2.98-0.060-1.68-0.081-2.199-0.081-6.459 0-4.261 0.021-4.781 0.081-6.481 0.081-1.56 0.34-2.419 0.56-2.979 0.28-0.76 0.639-1.28 1.2-1.841 0.559-0.559 1.080-0.919 1.839-1.197 0.56-0.221 1.401-0.481 2.961-0.561 1.7-0.060 2.2-0.080 6.479-0.080zM16 7.784c-4.54 0-8.216 3.68-8.216 8.216 0 4.54 3.68 8.216 8.216 8.216 4.54 0 8.216-3.68 8.216-8.216 0-4.54-3.68-8.216-8.216-8.216zM16 21.333c-2.947 0-5.333-2.387-5.333-5.333s2.387-5.333 5.333-5.333 5.333 2.387 5.333 5.333-2.387 5.333-5.333 5.333zM26.461 7.46c0 1.060-0.861 1.92-1.92 1.92-1.060 0-1.92-0.861-1.92-1.92s0.861-1.919 1.92-1.919c1.057-0.001 1.92 0.86 1.92 1.919z"></path>
</symbol>
<symbol id="icon-arrow" viewBox="0 0 32 32">
<path d="M20.566 27.767l11.2-11.2c0.313-0.313 0.313-0.819 0-1.131l-11.2-11.2c-0.313-0.313-0.819-0.313-1.131 0s-0.313 0.843 0 1.155l9.835 9.859h-28.469c-0.442 0-0.8 0.308-0.8 0.75s0.358 0.75 0.8 0.75h28.469l-9.834 9.86c-0.156 0.156-0.234 0.374-0.234 0.579s0.078 0.416 0.234 0.572c0.313 0.313 0.819 0.319 1.131 0.006z"></path>
</symbol>
<symbol id="icon-social-5" viewBox="0 0 30 32">
<path fill="#fff" style="fill: var(--color1, #fff)" d="M17.626 18.946c-0.591-0.623-1.629-1.023-2.855-1.023s-2.264 0.4-2.855 1.023c-0.308 0.325-0.471 0.659-0.523 1.134-0.099 0.92-0.044 1.712 0.064 2.979 0.103 1.207 0.298 2.817 0.552 4.456 0.181 1.167 0.328 1.796 0.462 2.247 0.217 0.731 1.029 1.37 2.299 1.37s2.081-0.639 2.299-1.37c0.134-0.451 0.281-1.081 0.462-2.247 0.255-1.639 0.449-3.249 0.552-4.456 0.108-1.267 0.164-2.059 0.064-2.979-0.051-0.475-0.214-0.809-0.523-1.134zM11.551 13.393c0 1.78 1.443 3.223 3.223 3.223s3.223-1.443 3.223-3.223c0-1.78-1.443-3.223-3.223-3.223s-3.223 1.443-3.223 3.223zM14.734 0.673c-7.538 0.021-13.715 6.137-13.809 13.675-0.076 6.106 3.822 11.329 9.265 13.244 0.132 0.046 0.266-0.063 0.245-0.202-0.071-0.474-0.139-0.951-0.2-1.419-0.022-0.166-0.127-0.308-0.28-0.375-4.302-1.88-7.306-6.194-7.258-11.192 0.063-6.559 5.419-11.906 11.978-11.959 6.705-0.054 12.177 5.385 12.177 12.077 0 4.948-2.991 9.209-7.259 11.074-0.153 0.067-0.258 0.21-0.279 0.375-0.062 0.468-0.129 0.945-0.2 1.418-0.021 0.138 0.113 0.248 0.245 0.202 5.391-1.896 9.266-7.038 9.266-13.069-0-7.65-6.235-13.872-13.89-13.85zM14.484 7.027c4.273-0.165 7.803 3.263 7.803 7.5 0 2.155-0.913 4.101-2.372 5.471-0.124 0.116-0.19 0.281-0.181 0.451 0.029 0.515 0.018 1.016-0.016 1.582-0.009 0.151 0.16 0.247 0.285 0.162 2.447-1.672 4.056-4.484 4.056-7.665 0-5.238-4.363-9.476-9.645-9.271-4.909 0.19-8.848 4.238-8.91 9.15-0.041 3.231 1.578 6.093 4.057 7.786 0.124 0.085 0.293-0.011 0.284-0.162-0.034-0.566-0.045-1.067-0.016-1.582 0.010-0.169-0.057-0.334-0.18-0.45-1.505-1.413-2.429-3.437-2.37-5.672 0.104-3.933 3.275-7.146 7.207-7.299z"></path>
</symbol>
<symbol id="icon-apple-podcasts-icon" viewBox="0 0 32 32">
<path fill="#000" style="fill: var(--color1, #000)" d="M7.119 0h17.762c3.932 0 7.119 3.187 7.119 7.119v17.762c0 3.932-3.187 7.119-7.119 7.119h-17.762c-3.932 0-7.119-3.187-7.119-7.119v-17.762c0-3.932 3.187-7.119 7.119-7.119z"></path>
<path fill="#fff" style="fill: var(--color2, #fff)" d="M15.023 28.015c-0.955-0.341-1.159-0.805-1.551-3.525-0.455-3.16-0.555-5.116-0.291-5.736 0.349-0.821 1.299-1.288 2.626-1.293 1.317-0.006 2.275 0.465 2.626 1.293 0.265 0.618 0.166 2.576-0.29 5.736-0.309 2.208-0.48 2.766-0.907 3.141-0.586 0.52-1.418 0.663-2.208 0.384zM10.945 24.772c-3.297-1.622-5.408-4.365-6.176-8.015-0.192-0.942-0.224-3.188-0.043-4.054 0.48-2.32 1.398-4.134 2.923-5.738 2.197-2.317 5.024-3.542 8.171-3.542 3.115 0 5.93 1.202 8.075 3.45 1.632 1.696 2.549 3.491 3.018 5.856 0.16 0.787 0.16 2.933 0.011 3.819-0.526 2.901-2.093 5.366-4.292 7.044l-0.028 0.020c-0.813 0.612-2.794 1.681-3.115 1.681-0.118 0-0.128-0.121-0.074-0.613 0.096-0.79 0.192-0.953 0.64-1.142 0.715-0.298 1.931-1.165 2.678-1.914 1.265-1.264 2.199-2.859 2.661-4.644l0.016-0.071c0.278-1.098 0.246-3.541-0.063-4.672-0.973-3.598-3.905-6.392-7.5-7.139-1.046-0.214-2.945-0.214-4.001 0-3.637 0.746-6.645 3.68-7.565 7.37-0.245 1-0.245 3.445 0 4.448 0.608 2.443 2.188 4.683 4.256 6.016 0.311 0.211 0.671 0.421 1.045 0.605l0.054 0.024c0.448 0.192 0.544 0.352 0.629 1.141 0.053 0.48 0.043 0.619-0.074 0.619-0.075 0-0.619-0.234-1.195-0.512zM10.988 20.434c-1.11-0.885-2.091-2.456-2.496-3.995-0.245-0.93-0.245-2.699 0.011-3.626 0.672-2.504 2.518-4.446 5.078-5.358 0.875-0.309 2.813-0.375 3.893-0.141 3.712 0.825 6.347 4.543 5.837 8.23-0.203 1.486-0.715 2.706-1.621 3.84-0.448 0.573-1.536 1.534-1.728 1.534-0.032 0-0.063-0.363-0.063-0.805v-0.804l0.555-0.661c2.091-2.504 1.941-6.002-0.341-8.299-0.885-0.893-1.909-1.418-3.232-1.66-0.853-0.158-1.035-0.158-1.931-0.011-1.36 0.222-2.414 0.75-3.35 1.674-2.297 2.268-2.447 5.787-0.356 8.293l0.55 0.664v0.813c0 0.448-0.036 0.813-0.079 0.813s-0.352-0.213-0.683-0.48zM14.689 16.079c-0.949-0.442-1.461-1.275-1.472-2.361 0-0.976 0.544-1.827 1.482-2.326 0.598-0.313 1.654-0.313 2.251 0 0.658 0.36 1.152 0.949 1.381 1.658l0.006 0.021c0.619 2.104-1.61 3.947-3.626 3.005z"></path>
<path fill="#fff" style="fill: var(--color2, #fff)" d="M18.648 13.831c0 1.469-1.191 2.66-2.66 2.66s-2.66-1.191-2.66-2.66c0-1.469 1.191-2.66 2.66-2.66s2.66 1.191 2.66 2.66z"></path>
<path fill="#fff" style="fill: var(--color2, #fff)" d="M16.246 17.522c0.335 0.039 0.637 0.103 0.928 0.191l-0.037-0.010c0.34 0.11 0.636 0.261 0.901 0.452l-0.010-0.007c0.235 0.171 0.406 0.348 0.512 0.563s0.16 0.471 0.192 0.891c0.021 0.42 0.021 1-0.074 2.091s-0.288 2.675-0.438 3.694-0.256 1.472-0.394 1.803c-0.191 0.524-0.631 0.914-1.173 1.033l-0.011 0.002c-0.158 0.035-0.34 0.055-0.527 0.055-0.032 0-0.064-0.001-0.096-0.002l0.005 0c-0.025 0.001-0.055 0.001-0.084 0.001-0.189 0-0.374-0.020-0.552-0.058l0.017 0.003c-0.245-0.054-0.563-0.149-0.8-0.341-0.245-0.192-0.405-0.47-0.533-0.832s-0.224-0.8-0.352-1.675-0.299-2.176-0.405-3.168-0.149-1.675-0.158-2.134 0.011-0.688 0.063-0.907c0.054-0.223 0.142-0.419 0.26-0.593l-0.004 0.006c0.121-0.169 0.262-0.314 0.422-0.434l0.005-0.004c0.143-0.111 0.309-0.202 0.488-0.265l0.012-0.004c0.192-0.077 0.42-0.143 0.655-0.188l0.024-0.004c0.277-0.053 0.597-0.106 0.761-0.128 0.052-0.012 0.112-0.018 0.174-0.018s0.122 0.007 0.179 0.019l-0.006-0.001z"></path>
</symbol>
<symbol id="icon-social-2" viewBox="0 0 32 32">
<path fill="#000" style="fill: var(--color2, #000)" d="M31.659 16c0 8.889-7.133 16-15.767 16s-15.892-7.111-15.892-16 7.133-16 15.767-16c8.634 0 15.892 7.111 15.892 16z"></path>
<path fill="#fff" style="fill: var(--color1, #fff)" d="M4.67 17.069c0.006-0.053 0.044-0.090 0.091-0.090 0.046 0 0.083 0.037 0.090 0.090l0.196 1.277-0.196 1.255c-0.007 0.053-0.045 0.089-0.090 0.089-0.047 0-0.085-0.037-0.091-0.090l-0.166-1.255 0.166-1.277z"></path>
<path fill="#fff" style="fill: var(--color1, #fff)" d="M5.598 16.189c0.048 0 0.086 0.038 0.094 0.093l0.253 2.064-0.253 2.019c-0.008 0.055-0.047 0.093-0.094 0.093s-0.088-0.039-0.094-0.093l-0.223-2.019 0.223-2.064c0.007-0.054 0.046-0.093 0.094-0.093z"></path>
<path fill="#fff" style="fill: var(--color1, #fff)" d="M9.030 14.55c0.004-0.096 0.080-0.172 0.171-0.172s0.166 0.076 0.171 0.172l0.2 3.798-0.2 2.455v-0.001c-0.005 0.096-0.081 0.172-0.171 0.172s-0.167-0.076-0.171-0.172l-0.177-2.454 0.177-3.798z"></path>
<path fill="#fff" style="fill: var(--color1, #fff)" d="M7.252 15.83c0.006-0.076 0.063-0.133 0.133-0.133s0.127 0.057 0.133 0.132l0.227 2.517-0.227 2.435c-0.006 0.075-0.063 0.132-0.133 0.132s-0.128-0.057-0.133-0.132l-0.2-2.435 0.2-2.516z"></path>
<path fill="#fff" style="fill: var(--color1, #fff)" d="M11.257 20.762c-0.005 0.119-0.097 0.211-0.21 0.211s-0.206-0.093-0.21-0.211l-0.154-2.414 0.154-5.056c0.004-0.119 0.096-0.212 0.21-0.212s0.205 0.093 0.21 0.211l0.174 5.056-0.174 2.413z"></path>
<path fill="#fff" style="fill: var(--color1, #fff)" d="M15.112 20.694c-0.003 0.16-0.132 0.29-0.287 0.29s-0.285-0.13-0.287-0.289c0 0-0.108-2.344-0.108-2.347l0.108-5.838c0.002-0.16 0.131-0.291 0.287-0.291s0.285 0.131 0.287 0.29l0.121 5.84-0.121 2.344z"></path>
<path fill="#fff" style="fill: var(--color1, #fff)" d="M13.17 20.724c-0.004 0.141-0.113 0.251-0.249 0.251s-0.246-0.11-0.249-0.25l-0.132-2.376 0.131-5.093c0.003-0.141 0.112-0.251 0.249-0.251 0.136 0 0.245 0.11 0.249 0.251l0.148 5.093-0.148 2.377v-0.002z"></path>
<path fill="#fff" style="fill: var(--color1, #fff)" d="M8.442 20.801c-0.006 0.086-0.071 0.152-0.152 0.152-0.082 0-0.147-0.066-0.152-0.152l-0.188-2.455 0.188-2.334c0.005-0.087 0.070-0.152 0.152-0.152s0.146 0.065 0.152 0.151l0.214 2.335-0.214 2.455z"></path>
<path fill="#fff" style="fill: var(--color1, #fff)" d="M6.602 20.706c-0.007 0.065-0.055 0.113-0.114 0.113-0.060 0-0.108-0.047-0.114-0.113l-0.211-2.36 0.211-2.449c0.006-0.065 0.054-0.113 0.114-0.113s0.107 0.047 0.114 0.113l0.24 2.449-0.24 2.36z"></path>
<path fill="#fff" style="fill: var(--color1, #fff)" d="M13.601 13.443c0.003-0.152 0.121-0.271 0.268-0.271s0.264 0.119 0.268 0.271l0.134 4.908-0.134 2.361v-0.002c-0.003 0.152-0.121 0.271-0.268 0.271s-0.265-0.119-0.268-0.269l-0.12-2.361 0.12-4.907z"></path>
<path fill="#fff" style="fill: var(--color1, #fff)" d="M10.312 20.786c-0.005 0.108-0.089 0.192-0.191 0.192-0.103 0-0.187-0.084-0.191-0.191l-0.166-2.439 0.166-4.667c0.004-0.107 0.088-0.192 0.191-0.192 0.102 0 0.186 0.084 0.191 0.192l0.187 4.667-0.187 2.438z"></path>
<path fill="#fff" style="fill: var(--color1, #fff)" d="M12.21 20.748v-0c-0.004 0.129-0.105 0.23-0.229 0.23s-0.226-0.102-0.229-0.23l-0.143-2.399 0.143-5.226c0.003-0.13 0.104-0.232 0.229-0.232s0.225 0.102 0.229 0.232l0.161 5.227-0.161 2.398v0.001c0-0 0-0 0-0.001v0.001z"></path>
<path fill="#fff" style="fill: var(--color1, #fff)" d="M23.291 15.556c0.332-0.141 0.696-0.219 1.078-0.219 1.538 0 2.786 1.266 2.786 2.828s-1.247 2.827-2.786 2.827c-0.050 0-7.716-0.004-7.723-0.005-0.166-0.017-0.299-0.161-0.301-0.334v-8.973c0.002-0.165 0.058-0.25 0.268-0.332 0.541-0.212 1.154-0.338 1.782-0.338 2.569 0 4.674 1.999 4.896 4.547z"></path>
<path fill="#fff" style="fill: var(--color1, #fff)" d="M15.469 11.982c0.002-0.171 0.14-0.311 0.307-0.311s0.304 0.139 0.307 0.31l0.137 6.369-0.137 2.312v-0.003c-0.003 0.171-0.14 0.311-0.307 0.311s-0.305-0.139-0.307-0.308l-0.126-2.311 0.126-6.369z"></path>
</symbol>
<symbol id="icon-icon-10" viewBox="0 0 32 32">
<path fill="#fe6a22" style="fill: var(--color1, #fe6a22)" d="M13.906 0.094c-2.919 0.381-5.688 1.569-8.031 3.45-0.681 0.544-1.787 1.65-2.331 2.331-1.356 1.694-2.419 3.731-2.969 5.719-0.25 0.881-0.375 1.512-0.487 2.406l-0.087 0.713v2.575l0.087 0.712c0.112 0.894 0.237 1.525 0.487 2.406 0.55 1.988 1.612 4.025 2.969 5.719 0.544 0.681 1.65 1.788 2.331 2.331 1.694 1.356 3.731 2.419 5.719 2.969 0.881 0.25 1.512 0.375 2.406 0.488l0.713 0.087h2.575l0.712-0.087c0.894-0.113 1.525-0.238 2.406-0.488 1.988-0.55 4.025-1.613 5.719-2.969 0.681-0.544 1.788-1.65 2.331-2.331 1.356-1.694 2.419-3.731 2.969-5.719 0.25-0.881 0.375-1.512 0.488-2.406l0.087-0.712v-2.575l-0.087-0.713c-0.113-0.894-0.238-1.525-0.488-2.406-0.55-1.988-1.613-4.025-2.969-5.719-0.544-0.681-1.65-1.787-2.331-2.331-1.694-1.356-3.731-2.419-5.719-2.969-0.881-0.25-1.512-0.375-2.406-0.487l-0.712-0.087-2.756 0.013-0.625 0.081zM19.369 11.063c0.831 0.137 1.706 0.531 2.369 1.069 0.481 0.387 0.994 1 1.262 1.5 0.256 0.481 0.494 1.181 0.544 1.606l0.038 0.338 0.163-0.031c0.087-0.019 0.35-0.069 0.587-0.113l0.419-0.081 0.419 0.069 0.419 0.075 0.387 0.2 0.394 0.194 0.319 0.325c0.356 0.363 0.569 0.7 0.706 1.144 0.231 0.725 0.181 1.344-0.175 2.063l-0.219 0.444-0.35 0.325c-0.369 0.331-0.663 0.506-1.144 0.675l-0.288 0.1-8.4 0.044-0.256-0.256v-9.181l0.094-0.088c0.113-0.119 0.769-0.338 1.219-0.412 0.481-0.075 1.025-0.081 1.494-0.006zM16.163 11.875l0.069 0.156 0.125 6.563-0.137 2.137-0.087 0.106c-0.106 0.125-0.281 0.131-0.381 0.006l-0.081-0.1-0.125-2.363 0.125-6.5 0.081-0.1c0.044-0.056 0.144-0.094 0.213-0.081l0.131 0.019 0.069 0.156zM15.175 12.419l0.069 0.175 0.050 2.906 0.056 2.906-0.069 1.206-0.063 1.212-0.119 0.081-0.119 0.087-0.113-0.063-0.113-0.056-0.050-0.238c-0.025-0.125-0.044-2-0.037-4.156l0.006-3.925 0.1-0.156c0.056-0.081 0.156-0.15 0.219-0.15h0.119l0.063 0.169zM12.219 13c0.019 0.031 0.075 1.244 0.119 2.7l0.088 2.637-0.088 1.244c-0.050 0.681-0.1 1.269-0.125 1.3-0.050 0.087-0.275 0.069-0.313-0.038-0.019-0.050-0.069-0.631-0.106-1.294l-0.075-1.206 0.075-2.637c0.037-1.45 0.088-2.669 0.113-2.7 0.050-0.088 0.262-0.088 0.313-0.006zM13.206 13.15c0.019 0.044 0.069 1.225 0.113 2.625l0.075 2.55-0.075 1.225-0.075 1.231-0.213 0.212-0.088-0.050-0.088-0.056-0.050-0.369c-0.025-0.2-0.069-0.913-0.094-1.581l-0.037-1.219 0.137-4.563 0.1-0.075c0.113-0.081 0.25-0.050 0.294 0.069zM11.238 13.231c0.031 0.063 0.094 1.244 0.137 2.625l0.081 2.512-0.081 1.175c-0.044 0.644-0.106 1.225-0.137 1.281-0.056 0.119-0.206 0.15-0.269 0.056-0.019-0.031-0.069-0.613-0.119-1.288l-0.088-1.231 0.088-2.556c0.044-1.406 0.1-2.588 0.119-2.619 0.063-0.1 0.206-0.075 0.269 0.044zM14.144 13.281l0.094 0.088 0.050 1.863c0.063 2.513 0.069 3.506 0 4.606l-0.050 0.925-0.25 0.25-0.231-0.231-0.063-1.281-0.069-1.281 0.063-2.031c0.031-1.119 0.063-2.206 0.063-2.419v-0.387l0.1-0.094c0.119-0.125 0.181-0.125 0.294-0.006zM10.281 13.7c0.019 0.081 0.069 1.162 0.125 2.413l0.088 2.275-0.094 1.163c-0.050 0.644-0.119 1.238-0.156 1.319l-0.063 0.15-0.1-0.094-0.094-0.1-0.088-1.225-0.088-1.219 0.088-2.344c0.044-1.281 0.106-2.369 0.125-2.406 0.075-0.119 0.219-0.075 0.256 0.069zM9.338 14.575c0.019 0.081 0.075 0.969 0.131 1.969l0.094 1.831-0.094 1.137c-0.056 0.631-0.113 1.206-0.125 1.281-0.019 0.081-0.075 0.144-0.125 0.144s-0.106-0.063-0.125-0.144c-0.019-0.075-0.069-0.656-0.113-1.294l-0.081-1.156 0.081-1.813c0.044-1 0.1-1.875 0.113-1.956 0.019-0.075 0.075-0.137 0.125-0.137s0.106 0.063 0.119 0.137zM7.463 15.95c0.019 0.113 0.081 0.712 0.131 1.331l0.1 1.125-0.119 1.206c-0.069 0.663-0.138 1.225-0.162 1.244-0.106 0.106-0.162-0.169-0.256-1.288l-0.106-1.206 0.106-1.256c0.056-0.694 0.119-1.281 0.131-1.306 0.069-0.106 0.144-0.037 0.175 0.15zM6.525 16.044c0.019 0.1 0.075 0.669 0.131 1.269l0.106 1.094-0.125 1.175c-0.069 0.644-0.138 1.194-0.162 1.212-0.019 0.019-0.050 0.025-0.069 0.006s-0.088-0.581-0.15-1.244l-0.106-1.212 0.106-1.219c0.063-0.669 0.112-1.225 0.119-1.238 0-0.006 0.025-0.012 0.056-0.012s0.075 0.075 0.094 0.169zM8.4 16.075c0.019 0.081 0.075 0.631 0.125 1.225l0.094 1.081-0.094 1.075c-0.050 0.594-0.106 1.169-0.125 1.275l-0.031 0.206h-0.169l-0.037-0.238c-0.019-0.125-0.069-0.688-0.106-1.25l-0.075-1.019 0.075-1.075c0.044-0.594 0.088-1.15 0.106-1.25l0.037-0.169h0.088c0.044 0 0.1 0.063 0.113 0.137zM5.725 17.394l0.112 0.994-0.112 0.944c-0.063 0.525-0.138 0.994-0.169 1.044l-0.044 0.094-0.037-0.156c-0.019-0.087-0.081-0.55-0.131-1.031l-0.1-0.875 0.1-1c0.056-0.55 0.119-1.044 0.131-1.094l0.031-0.094 0.050 0.094c0.031 0.050 0.106 0.538 0.169 1.081zM4.831 17.769l0.094 0.613-0.094 0.606c-0.056 0.331-0.112 0.619-0.125 0.631-0.050 0.069-0.094-0.087-0.175-0.65l-0.081-0.606 0.088-0.6c0.044-0.337 0.088-0.631 0.088-0.669v-0.056l0.056 0.056c0.031 0.038 0.1 0.337 0.15 0.675z"></path>
<path fill="#fffefe" style="fill: var(--color2, #fffefe)" d="M0.006 7.388v7.394l0.050-0.125c0.031-0.069 0.069-0.338 0.094-0.594 0.063-0.631 0.25-1.569 0.487-2.406 0.556-1.988 1.613-4.025 2.969-5.719 0.544-0.681 1.65-1.787 2.331-2.331 1.694-1.356 3.731-2.413 5.719-2.969 0.838-0.237 1.781-0.425 2.406-0.481 0.256-0.025 0.512-0.069 0.563-0.1l0.094-0.050-14.719-0.006 0.006 7.388z"></path>
<path fill="#fffefe" style="fill: var(--color2, #fffefe)" d="M17.375 0.056c0.050 0.031 0.306 0.075 0.563 0.1 0.625 0.056 1.569 0.244 2.406 0.481 1.988 0.556 4.025 1.613 5.719 2.969 0.681 0.544 1.788 1.65 2.331 2.331 1.356 1.694 2.413 3.731 2.969 5.719 0.238 0.838 0.425 1.781 0.481 2.406 0.025 0.256 0.069 0.512 0.1 0.563l0.050 0.094 0.006-7.362v-7.356l-14.719 0.006 0.094 0.050z"></path>
<path fill="#fffefe" style="fill: var(--color2, #fffefe)" d="M31.913 17.419c-0.019 0.1-0.050 0.356-0.069 0.581-0.063 0.587-0.256 1.556-0.481 2.344-0.556 1.988-1.613 4.025-2.969 5.719-0.544 0.681-1.65 1.788-2.331 2.331-1.694 1.356-3.731 2.413-5.719 2.969-0.837 0.238-1.781 0.425-2.406 0.481-0.256 0.025-0.512 0.069-0.563 0.1l-0.094 0.050 14.719 0.006v-7.375c0-4.056-0.012-7.375-0.025-7.375-0.019 0-0.044 0.075-0.063 0.169z"></path>
<path fill="#fffefe" style="fill: var(--color2, #fffefe)" d="M0 24.637v7.363l14.719-0.006-0.094-0.050c-0.050-0.031-0.306-0.075-0.563-0.1-0.625-0.056-1.569-0.244-2.406-0.481-1.988-0.556-4.025-1.613-5.719-2.969-0.681-0.544-1.787-1.65-2.331-2.331-1.356-1.694-2.413-3.731-2.969-5.719-0.237-0.837-0.425-1.781-0.481-2.406-0.025-0.256-0.069-0.512-0.1-0.563l-0.050-0.094-0.006 7.356z"></path>
<path fill="#f1f1f1" style="fill: var(--color3, #f1f1f1)" d="M17.813 11.006c-0.45 0.075-1.106 0.294-1.219 0.412l-0.094 0.088v9.306l0.256 0.256 8.525-0.044 0.288-0.1c0.481-0.169 0.775-0.344 1.144-0.675l0.35-0.325 0.219-0.444 0.219-0.45 0.069-0.406c0.069-0.45 0.038-0.875-0.113-1.331-0.137-0.438-0.344-0.775-0.681-1.119-0.719-0.731-1.756-1.025-2.731-0.769-0.2 0.050-0.369 0.094-0.381 0.094s-0.038-0.15-0.056-0.331c-0.050-0.419-0.294-1.125-0.544-1.6-0.425-0.8-1.25-1.613-2.063-2.031-1.019-0.525-2.1-0.706-3.188-0.531z"></path>
<path fill="#f1f1f1" style="fill: var(--color3, #f1f1f1)" d="M15.688 11.719l-0.081 0.1-0.063 3.287-0.063 3.281 0.063 1.225 0.063 1.219 0.144 0.119c0.075 0.063 0.162 0.113 0.188 0.113s0.113-0.056 0.194-0.119l0.15-0.119 0.075-1.119 0.069-1.113-0.063-3.313-0.069-3.313-0.137-0.313-0.387-0.037-0.081 0.1z"></path>
<path fill="#f1f1f1" style="fill: var(--color3, #f1f1f1)" d="M14.725 12.325l-0.094 0.144-0.075 6.625 0.050 0.9 0.056 0.9 0.119 0.081c0.15 0.113 0.225 0.113 0.381 0l0.119-0.087 0.069-1.212 0.063-1.206-0.056-2.969-0.050-2.969-0.069-0.175-0.063-0.169h-0.363l-0.088 0.137z"></path>
<path fill="#f1f1f1" style="fill: var(--color3, #f1f1f1)" d="M11.912 12.894l-0.113 0.081-0.15 5.4 0.081 1.262 0.075 1.269 0.106 0.075c0.137 0.1 0.162 0.1 0.294 0l0.106-0.075 0.088-1.281 0.094-1.281-0.175-5.375-0.113-0.075c-0.131-0.1-0.156-0.1-0.294 0z"></path>
<path fill="#f1f1f1" style="fill: var(--color3, #f1f1f1)" d="M12.856 13.019l-0.113 0.075-0.137 5.238 0.069 1.225c0.037 0.675 0.088 1.275 0.106 1.337 0.025 0.056 0.1 0.119 0.169 0.144l0.125 0.038 0.113-0.113 0.113-0.119 0.081-1.188 0.075-1.188-0.044-1.563c-0.019-0.863-0.056-2.063-0.081-2.675l-0.037-1.119-0.088-0.088c-0.113-0.106-0.213-0.113-0.35-0.006z"></path>
<path fill="#f1f1f1" style="fill: var(--color3, #f1f1f1)" d="M10.975 13.081l-0.106 0.075-0.081 2.619-0.088 2.612 0.088 1.262 0.088 1.256 0.106 0.075c0.056 0.044 0.125 0.081 0.156 0.081 0.025 0 0.088-0.063 0.137-0.144l0.088-0.137 0.081-1.206 0.075-1.206-0.075-2.481c-0.044-1.363-0.088-2.544-0.106-2.619-0.012-0.075-0.081-0.169-0.144-0.2l-0.113-0.063-0.106 0.075z"></path>
<path fill="#f1f1f1" style="fill: var(--color3, #f1f1f1)" d="M13.787 13.225l-0.1 0.094v0.356c0 0.194-0.031 1.313-0.063 2.481l-0.063 2.125 0.063 1.281 0.069 1.281 0.119 0.119 0.119 0.125 0.156-0.075 0.156-0.069 0.031-0.144c0.019-0.081 0.063-0.681 0.1-1.331l0.069-1.188-0.063-1.938c-0.037-1.069-0.069-2.181-0.069-2.481v-0.544l-0.1-0.094c-0.050-0.056-0.15-0.1-0.213-0.1s-0.162 0.044-0.213 0.1z"></path>
<path fill="#f1f1f1" style="fill: var(--color3, #f1f1f1)" d="M10.031 13.525l-0.106 0.075-0.094 2.4-0.088 2.394 0.088 1.244 0.094 1.238 0.075 0.094c0.113 0.137 0.244 0.113 0.313-0.050 0.031-0.075 0.1-0.675 0.156-1.325l0.094-1.188-0.094-2.313c-0.050-1.275-0.106-2.375-0.125-2.444-0.037-0.175-0.175-0.225-0.313-0.125z"></path>
<path fill="#f1f1f1" style="fill: var(--color3, #f1f1f1)" d="M9.094 14.412l-0.094 0.094-0.006 0.294c0 0.162-0.037 1.025-0.081 1.919l-0.081 1.631 0.081 1.056c0.044 0.587 0.081 1.15 0.081 1.262 0.006 0.225 0.15 0.406 0.287 0.35 0.056-0.019 0.106-0.094 0.125-0.169 0.012-0.069 0.069-0.656 0.125-1.3l0.094-1.163-0.094-1.869c-0.056-1.025-0.113-1.925-0.125-1.994-0.037-0.175-0.194-0.231-0.313-0.113z"></path>
<path fill="#f1f1f1" style="fill: var(--color3, #f1f1f1)" d="M7.225 15.738c-0.013 0.025-0.075 0.631-0.131 1.337l-0.106 1.288 0.106 1.244 0.1 1.238 0.15 0.15 0.088-0.050 0.081-0.056 0.125-1.238 0.119-1.244-0.1-1.156c-0.050-0.637-0.112-1.25-0.131-1.363l-0.031-0.2h-0.119c-0.063 0-0.131 0.025-0.15 0.050z"></path>
<path fill="#f1f1f1" style="fill: var(--color3, #f1f1f1)" d="M6.338 15.819c-0.019 0.037-0.088 0.619-0.15 1.294l-0.106 1.231 0.112 1.219c0.063 0.669 0.112 1.238 0.119 1.262 0 0.031 0.056 0.050 0.125 0.050h0.119l0.031-0.206c0.019-0.106 0.081-0.675 0.138-1.25l0.1-1.050-0.106-1.169c-0.063-0.644-0.138-1.231-0.162-1.313-0.056-0.15-0.15-0.181-0.219-0.069z"></path>
<path fill="#f1f1f1" style="fill: var(--color3, #f1f1f1)" d="M8.188 15.875l-0.088 0.050-0.094 1.231-0.094 1.225 0.081 1.106c0.044 0.606 0.094 1.2 0.112 1.306l0.031 0.206h0.294l0.031-0.206c0.019-0.106 0.075-0.7 0.131-1.306l0.094-1.106-0.1-1.113c-0.050-0.613-0.106-1.175-0.119-1.244-0.037-0.156-0.162-0.225-0.281-0.15z"></path>
<path fill="#f1f1f1" style="fill: var(--color3, #f1f1f1)" d="M5.406 16.262c-0.013 0.044-0.069 0.544-0.125 1.113l-0.106 1.031 0.1 0.906c0.056 0.5 0.119 0.969 0.131 1.044 0.019 0.081 0.075 0.144 0.125 0.144s0.094-0.006 0.1-0.019c0-0.006 0.069-0.481 0.144-1.056l0.138-1.038-0.138-1.087c-0.075-0.594-0.144-1.087-0.144-1.1-0.006-0.006-0.050-0.012-0.1-0.012-0.056 0-0.106 0.038-0.125 0.075z"></path>
<path fill="#f1f1f1" style="fill: var(--color3, #f1f1f1)" d="M4.563 17.019c0 0.012-0.044 0.319-0.094 0.681l-0.094 0.663 0.094 0.644c0.050 0.35 0.119 0.669 0.15 0.7l0.069 0.069 0.056-0.063c0.025-0.031 0.1-0.35 0.156-0.712l0.1-0.656-0.106-0.656-0.112-0.656-0.106-0.019c-0.063-0.012-0.112-0.012-0.112 0.006z"></path>
<path fill="#fe7432" style="fill: var(--color4, #fe7432)" d="M5.188 4.156l-0.075 0.094h0.063c0.031 0 0.094-0.044 0.138-0.094l0.075-0.094h-0.063c-0.031 0-0.094 0.044-0.138 0.094z"></path>
<path fill="#fe7432" style="fill: var(--color4, #fe7432)" d="M26.688 4.156c0.044 0.050 0.106 0.094 0.137 0.094h0.063l-0.075-0.094c-0.044-0.050-0.106-0.094-0.137-0.094h-0.063l0.075 0.094z"></path>
<path fill="#fe7432" style="fill: var(--color4, #fe7432)" d="M27.75 5.175c0 0.031 0.044 0.094 0.094 0.138l0.094 0.075v-0.063c0-0.031-0.044-0.094-0.094-0.138l-0.094-0.075v0.063z"></path>
<path fill="#fe7432" style="fill: var(--color4, #fe7432)" d="M3.731 5.669c-0.025 0.019-0.044 0.069-0.044 0.106v0.063l0.075-0.075c0.038-0.037 0.056-0.088 0.044-0.106-0.019-0.019-0.056-0.013-0.075 0.013z"></path>
<path fill="#fe7432" style="fill: var(--color4, #fe7432)" d="M3.231 6.294c-0.025 0.019-0.044 0.069-0.044 0.106v0.063l0.075-0.075c0.038-0.037 0.056-0.088 0.044-0.106-0.019-0.019-0.056-0.013-0.075 0.013z"></path>
<path fill="#fe7432" style="fill: var(--color4, #fe7432)" d="M3.044 6.544c-0.025 0.019-0.044 0.069-0.044 0.106v0.063l0.075-0.075c0.038-0.037 0.056-0.088 0.044-0.106-0.019-0.019-0.056-0.013-0.075 0.013z"></path>
<path fill="#fe7432" style="fill: var(--color4, #fe7432)" d="M2.106 7.981c-0.025 0.019-0.044 0.069-0.044 0.106v0.063l0.075-0.075c0.038-0.037 0.056-0.088 0.044-0.106-0.019-0.019-0.056-0.013-0.075 0.013z"></path>
<path fill="#fe7432" style="fill: var(--color4, #fe7432)" d="M0.919 10.544c-0.025 0.019-0.044 0.069-0.044 0.106v0.063l0.075-0.075c0.037-0.037 0.056-0.088 0.044-0.106-0.019-0.019-0.056-0.012-0.075 0.012z"></path>
<path fill="#fe7432" style="fill: var(--color4, #fe7432)" d="M11.925 12.881c-0.063 0.031-0.113 0.094-0.113 0.131v0.069l0.25-0.225 0.25 0.225v-0.069c0-0.037-0.056-0.1-0.119-0.137-0.144-0.075-0.137-0.075-0.269 0.006z"></path>
<path fill="#fe7432" style="fill: var(--color4, #fe7432)" d="M12.794 13.044c-0.025 0.019-0.044 0.069-0.044 0.106v0.063l0.075-0.075c0.037-0.037 0.056-0.088 0.044-0.106-0.019-0.019-0.056-0.012-0.075 0.012z"></path>
<path fill="#fe7432" style="fill: var(--color4, #fe7432)" d="M5.419 16.231c-0.025 0.019-0.044 0.069-0.044 0.106v0.063l0.075-0.075c0.037-0.038 0.056-0.087 0.044-0.106-0.019-0.019-0.056-0.012-0.075 0.012z"></path>
<path fill="#fe7432" style="fill: var(--color4, #fe7432)" d="M4.594 17l-0.037 0.063h0.2l-0.037-0.063c-0.019-0.038-0.050-0.063-0.063-0.063s-0.044 0.025-0.063 0.063z"></path>
<path fill="#fe7432" style="fill: var(--color4, #fe7432)" d="M4.731 19.606c-0.025 0.019-0.044 0.069-0.044 0.106v0.063l0.075-0.075c0.037-0.038 0.056-0.087 0.044-0.106-0.019-0.019-0.056-0.012-0.075 0.012z"></path>
<path fill="#fe7432" style="fill: var(--color4, #fe7432)" d="M16.294 19.744l-0.038 0.15 0.069-0.069c0.031-0.031 0.050-0.1 0.038-0.144l-0.025-0.081-0.044 0.144z"></path>
<path fill="#fe7432" style="fill: var(--color4, #fe7432)" d="M26.981 19.856c-0.025 0.019-0.044 0.069-0.044 0.106v0.063l0.075-0.075c0.038-0.038 0.056-0.087 0.044-0.106-0.019-0.019-0.056-0.012-0.075 0.012z"></path>
<path fill="#fe7432" style="fill: var(--color4, #fe7432)" d="M6.531 20.688l-0.044 0.131-0.088-0.031c-0.050-0.019-0.088-0.006-0.088 0.025 0 0.038 0.050 0.063 0.119 0.063h0.119l0.031-0.137c0.050-0.181 0.006-0.225-0.050-0.050z"></path>
<path fill="#fe7432" style="fill: var(--color4, #fe7432)" d="M31.044 21.356c-0.025 0.019-0.044 0.069-0.044 0.106v0.063l0.075-0.075c0.038-0.038 0.056-0.087 0.044-0.106-0.019-0.019-0.056-0.012-0.075 0.012z"></path>
<path fill="#fe7432" style="fill: var(--color4, #fe7432)" d="M29.856 23.919c-0.025 0.019-0.044 0.069-0.044 0.106v0.063l0.075-0.075c0.038-0.038 0.056-0.087 0.044-0.106-0.019-0.019-0.056-0.012-0.075 0.012z"></path>
<path fill="#fe7432" style="fill: var(--color4, #fe7432)" d="M28.919 25.356c-0.025 0.019-0.044 0.069-0.044 0.106v0.063l0.075-0.075c0.038-0.038 0.056-0.087 0.044-0.106-0.019-0.019-0.056-0.012-0.075 0.012z"></path>
<path fill="#fe7432" style="fill: var(--color4, #fe7432)" d="M28.731 25.606c-0.025 0.019-0.044 0.069-0.044 0.106v0.063l0.075-0.075c0.038-0.038 0.056-0.087 0.044-0.106-0.019-0.019-0.056-0.012-0.075 0.012z"></path>
<path fill="#fe7432" style="fill: var(--color4, #fe7432)" d="M28.231 26.231c-0.025 0.019-0.044 0.069-0.044 0.106v0.063l0.075-0.075c0.038-0.038 0.056-0.087 0.044-0.106-0.019-0.019-0.056-0.012-0.075 0.012z"></path>
<path fill="#fe7432" style="fill: var(--color4, #fe7432)" d="M4.063 26.675c0 0.031 0.044 0.094 0.094 0.137l0.094 0.075v-0.063c0-0.031-0.044-0.094-0.094-0.137l-0.094-0.075v0.063z"></path>
<path fill="#fe7432" style="fill: var(--color4, #fe7432)" d="M5.188 27.844c0.044 0.050 0.106 0.094 0.138 0.094h0.063l-0.075-0.094c-0.044-0.050-0.106-0.094-0.138-0.094h-0.063l0.075 0.094z"></path>
<path fill="#fe7432" style="fill: var(--color4, #fe7432)" d="M26.688 27.844l-0.075 0.094h0.063c0.031 0 0.094-0.044 0.137-0.094l0.075-0.094h-0.063c-0.031 0-0.094 0.044-0.137 0.094z"></path>
<path fill="#fb9462" style="fill: var(--color5, #fb9462)" d="M25.75 3.337c0 0.013 0.044 0.056 0.094 0.1l0.094 0.075v-0.063c0-0.031-0.044-0.075-0.094-0.1-0.050-0.019-0.094-0.025-0.094-0.013z"></path>
<path fill="#fb9462" style="fill: var(--color5, #fb9462)" d="M28.5 6.088c0 0.013 0.044 0.056 0.094 0.1l0.094 0.081-0.038-0.106c-0.019-0.056-0.063-0.1-0.094-0.1s-0.056 0.013-0.056 0.025z"></path>
<path fill="#fb9462" style="fill: var(--color5, #fb9462)" d="M3.35 25.844c0.025 0.050 0.069 0.094 0.1 0.094h0.063l-0.075-0.094c-0.044-0.050-0.087-0.094-0.1-0.094s-0.006 0.044 0.013 0.094z"></path>
<path fill="#fb9462" style="fill: var(--color5, #fb9462)" d="M28.563 25.844l-0.075 0.094h0.063c0.031 0 0.075-0.044 0.1-0.094 0.019-0.050 0.025-0.094 0.012-0.094s-0.056 0.044-0.1 0.094z"></path>
<path fill="#f8b99b" style="fill: var(--color6, #f8b99b)" d="M6.313 20.731c0 0.119 0.131 0.169 0.206 0.081l0.075-0.081-0.088 0.050-0.081 0.050-0.112-0.175v0.075z"></path>
<path fill="#fd7d3f" style="fill: var(--color7, #fd7d3f)" d="M4.044 5.294c-0.025 0.019-0.044 0.069-0.044 0.106v0.063l0.075-0.075c0.037-0.037 0.056-0.088 0.044-0.106-0.019-0.019-0.056-0.013-0.075 0.013z"></path>
<path fill="#fd7d3f" style="fill: var(--color7, #fd7d3f)" d="M3.669 5.731c-0.025 0.019-0.044 0.069-0.044 0.106v0.063l0.075-0.075c0.038-0.037 0.056-0.088 0.044-0.106-0.019-0.019-0.056-0.013-0.075 0.013z"></path>
<path fill="#fd7d3f" style="fill: var(--color7, #fd7d3f)" d="M3.169 6.356c-0.025 0.019-0.044 0.069-0.044 0.106v0.063l0.075-0.075c0.038-0.037 0.056-0.088 0.044-0.106-0.019-0.019-0.056-0.013-0.075 0.013z"></path>
<path fill="#fd7d3f" style="fill: var(--color7, #fd7d3f)" d="M2.856 6.794c-0.025 0.019-0.044 0.069-0.044 0.106v0.063l0.075-0.075c0.038-0.037 0.056-0.088 0.044-0.106-0.019-0.019-0.056-0.013-0.075 0.013z"></path>
<path fill="#fd7d3f" style="fill: var(--color7, #fd7d3f)" d="M11.294 13.319l0.044 0.144 0.025-0.081c0.012-0.044-0.006-0.113-0.037-0.144l-0.069-0.069 0.037 0.15z"></path>
<path fill="#fd7d3f" style="fill: var(--color7, #fd7d3f)" d="M8.206 15.856c-0.044 0.012-0.081 0.056-0.081 0.094v0.063l0.081-0.069c0.050-0.037 0.113-0.044 0.137-0.019l0.050 0.044-0.044-0.081c-0.025-0.037-0.050-0.075-0.056-0.069-0.006 0-0.050 0.019-0.088 0.037z"></path>
<path fill="#fd7d3f" style="fill: var(--color7, #fd7d3f)" d="M27.106 19.669c-0.025 0.019-0.044 0.069-0.044 0.106v0.063l0.075-0.075c0.038-0.038 0.056-0.087 0.044-0.106-0.019-0.019-0.056-0.012-0.075 0.012z"></path>
<path fill="#fd7d3f" style="fill: var(--color7, #fd7d3f)" d="M26.919 19.919c-0.025 0.019-0.044 0.069-0.044 0.106v0.063l0.075-0.075c0.038-0.038 0.056-0.087 0.044-0.106-0.019-0.019-0.056-0.012-0.075 0.012z"></path>
<path fill="#fd7d3f" style="fill: var(--color7, #fd7d3f)" d="M29.106 25.106c-0.025 0.019-0.044 0.069-0.044 0.106v0.063l0.075-0.075c0.038-0.038 0.056-0.087 0.044-0.106-0.019-0.019-0.056-0.012-0.075 0.012z"></path>
<path fill="#fd7d3f" style="fill: var(--color7, #fd7d3f)" d="M28.794 25.544c-0.025 0.019-0.044 0.069-0.044 0.106v0.063l0.075-0.075c0.038-0.038 0.056-0.087 0.044-0.106-0.019-0.019-0.056-0.012-0.075 0.012z"></path>
<path fill="#fd7d3f" style="fill: var(--color7, #fd7d3f)" d="M28.294 26.169c-0.025 0.019-0.044 0.069-0.044 0.106v0.063l0.075-0.075c0.038-0.038 0.056-0.087 0.044-0.106-0.019-0.019-0.056-0.012-0.075 0.012z"></path>
<path fill="#fd7d3f" style="fill: var(--color7, #fd7d3f)" d="M27.919 26.606c-0.025 0.019-0.044 0.069-0.044 0.106v0.063l0.075-0.075c0.038-0.038 0.056-0.087 0.044-0.106-0.019-0.019-0.056-0.012-0.075 0.012z"></path>
<path fill="#fd7d3f" style="fill: var(--color7, #fd7d3f)" d="M8.381 30.087c0.012 0.012 0.094 0.056 0.181 0.094l0.156 0.075-0.119-0.094c-0.069-0.056-0.15-0.1-0.188-0.1-0.031 0-0.044 0.012-0.031 0.025z"></path>
<path fill="#fc864d" style="fill: var(--color8, #fc864d)" d="M9.25 14.4c0 0.012 0.044 0.056 0.094 0.1l0.094 0.081-0.037-0.106c-0.019-0.056-0.063-0.1-0.094-0.1s-0.056 0.012-0.056 0.025z"></path>
<path fill="#fc864d" style="fill: var(--color8, #fc864d)" d="M26.856 19.981c-0.025 0.019-0.044 0.069-0.044 0.106v0.063l0.075-0.075c0.038-0.038 0.056-0.087 0.044-0.106-0.019-0.019-0.056-0.012-0.075 0.012z"></path>
<path fill="#fb9b6c" style="fill: var(--color9, #fb9b6c)" d="M21.25 11.75c0.050 0.037 0.15 0.094 0.219 0.131l0.125 0.063-0.156-0.125c-0.087-0.069-0.181-0.131-0.219-0.131-0.031 0-0.019 0.031 0.031 0.063z"></path>
<path fill="#fb8e59" style="fill: var(--color10, #fb8e59)" d="M10.188 13.525c0 0.012 0.044 0.056 0.094 0.1l0.094 0.081-0.037-0.106c-0.019-0.056-0.063-0.1-0.094-0.1s-0.056 0.012-0.056 0.025z"></path>
</symbol>
<symbol id="icon-social-4" viewBox="0 0 32 32">
<path fill="#fff" style="fill: var(--color1, #fff)" d="M15.659 30c7.732 0 14-6.268 14-14s-6.268-14-14-14c-7.732 0-14 6.268-14 14s6.268 14 14 14z"></path>
<path fill="#f43e37" style="fill: var(--color3, #f43e37)" d="M16.186 0c-8.576 0-15.527 7.163-15.527 16s6.951 16 15.527 16c8.576 0 15.527-7.163 15.527-16s-6.951-16-15.527-16zM20.996 16.148c0-2.655-2.089-4.808-4.666-4.808s-4.666 2.153-4.666 4.808c0 2.655 2.089 4.808 4.666 4.808v2.748c-4.049 0-7.332-3.383-7.332-7.556s3.283-7.556 7.332-7.556c4.050 0 7.333 3.383 7.333 7.556h-2.666zM25.495 16.148c0-5.216-4.103-9.444-9.166-9.444s-9.165 4.229-9.165 9.444c0 5.216 4.103 9.444 9.165 9.444v3.148c-6.749 0-12.22-5.638-12.22-12.592s5.472-12.592 12.22-12.592c6.749 0 12.221 5.638 12.221 12.592h-3.055z"></path>
</symbol>
<symbol id="icon-social-1" viewBox="0 0 32 32">
<path fill="#fff" style="fill: var(--color1, #fff); stroke: var(--color4, #363f46)" stroke="#363f46" stroke-linejoin="miter" stroke-linecap="round" stroke-miterlimit="4" stroke-width="2.4258" d="M15.938 30c7.767 0 14.063-6.296 14.063-14.063s-6.296-14.063-14.063-14.063c-7.767 0-14.063 6.296-14.063 14.063s6.296 14.063 14.063 14.063z"></path>
<path fill="#fff" style="fill: var(--color1, #fff)" d="M8.303 9.999c0 0-1.945 2.194-1.945 6.027s1.945 5.938 1.945 5.938z"></path>
<path fill="none" stroke="#fc7e0f" style="stroke: var(--color5, #fc7e0f)" stroke-linejoin="miter" stroke-linecap="round" stroke-miterlimit="4" stroke-width="2.4258" d="M8.303 9.999c0 0-1.945 2.194-1.945 6.027s1.945 5.938 1.945 5.938"></path>
<path fill="#fff" style="fill: var(--color1, #fff)" d="M23.796 9.999c0 0 1.945 2.194 1.945 6.027s-1.945 5.938-1.945 5.938z"></path>
<path fill="none" stroke="#fc7e0f" style="stroke: var(--color5, #fc7e0f)" stroke-linejoin="miter" stroke-linecap="round" stroke-miterlimit="4" stroke-width="2.4258" d="M23.796 9.999c0 0 1.945 2.194 1.945 6.027s-1.945 5.938-1.945 5.938"></path>
<path fill="#fff" style="fill: var(--color1, #fff)" d="M20.694 12.563c0 0 1.31 1.631 1.278 3.455-0.040 2.194-1.262 3.399-1.262 3.399z"></path>
<path fill="none" stroke="#fc7e0f" style="stroke: var(--color5, #fc7e0f)" stroke-linejoin="miter" stroke-linecap="round" stroke-miterlimit="4" stroke-width="2.4258" d="M20.694 12.563c0 0 1.31 1.631 1.278 3.455-0.040 2.194-1.262 3.399-1.262 3.399"></path>
<path fill="#fff" style="fill: var(--color1, #fff)" d="M11.341 12.563c0 0-1.31 1.631-1.278 3.455 0.040 2.194 1.262 3.399 1.262 3.399z"></path>
<path fill="none" stroke="#fc7e0f" style="stroke: var(--color5, #fc7e0f)" stroke-linejoin="miter" stroke-linecap="round" stroke-miterlimit="4" stroke-width="2.4258" d="M11.341 12.563c0 0-1.31 1.631-1.278 3.455 0.040 2.194 1.262 3.399 1.262 3.399"></path>
<path fill="#363f46" style="fill: var(--color4, #363f46)" d="M15.936 18.121c1.206 0 2.183-0.977 2.183-2.183s-0.977-2.183-2.183-2.183c-1.206 0-2.183 0.977-2.183 2.183s0.977 2.183 2.183 2.183z"></path>
<path fill="#363f46" style="fill: var(--color4, #363f46)" d="M16.305 17.977l-1.549-0.416-2.579 9.632 1.549 0.416 2.579-9.632z"></path>
<path fill="#363f46" style="fill: var(--color4, #363f46)" d="M15.705 17.964l1.542-0.409 2.565 9.639-1.542 0.409-2.565-9.639z"></path>
<path fill="#363f46" style="fill: var(--color4, #363f46)" d="M14.273 23.162l0.573-0.587 3.97 3.868-0.573 0.587-3.97-3.868z"></path>
<path fill="#363f46" style="fill: var(--color4, #363f46)" d="M17.635 23.183l-0.518-0.525-3.936 3.909 0.518 0.525 3.936-3.909z"></path>
</symbol>
<symbol id="icon-social" viewBox="0 0 32 32">
<path fill="#1ed760" style="fill: var(--color6, #1ed760)" d="M15.999 0.053c-8.809 0-15.951 7.142-15.951 15.951s7.142 15.951 15.951 15.951c8.81 0 15.951-7.141 15.951-15.951s-7.141-15.95-15.951-15.95l0-0.001zM23.314 23.058c-0.286 0.469-0.899 0.617-1.368 0.33-3.745-2.288-8.46-2.806-14.012-1.537-0.535 0.122-1.068-0.213-1.19-0.748s0.211-1.069 0.748-1.191c6.076-1.389 11.288-0.791 15.493 1.779 0.469 0.288 0.617 0.899 0.329 1.368zM25.267 18.715c-0.36 0.586-1.126 0.77-1.71 0.41-4.288-2.636-10.823-3.399-15.895-1.86-0.658 0.199-1.352-0.172-1.552-0.829-0.198-0.658 0.173-1.351 0.829-1.551 5.793-1.758 12.995-0.906 17.918 2.119 0.585 0.36 0.77 1.126 0.41 1.71v-0zM25.434 14.192c-5.141-3.054-13.623-3.334-18.531-1.845-0.788 0.239-1.622-0.206-1.861-0.994s0.206-1.622 0.994-1.861c5.635-1.71 15.001-1.38 20.92 2.134 0.71 0.421 0.943 1.336 0.522 2.044-0.419 0.709-1.337 0.943-2.044 0.522h-0.001z"></path>
</symbol>
<symbol id="icon-IMAGE-7" viewBox="0 0 32 32">
<path fill="none" stroke="#fff" style="stroke: var(--color1, #fff)" stroke-linejoin="round" stroke-linecap="round" stroke-miterlimit="4" stroke-width="2.6667" d="M22.667 2.667h-13.333c-3.682 0-6.667 2.985-6.667 6.667v13.333c0 3.682 2.985 6.667 6.667 6.667h13.333c3.682 0 6.667-2.985 6.667-6.667v-13.333c0-3.682-2.985-6.667-6.667-6.667z"></path>
<path fill="none" stroke="#fff" style="stroke: var(--color1, #fff)" stroke-linejoin="round" stroke-linecap="round" stroke-miterlimit="4" stroke-width="2.6667" d="M21.333 15.16c0.165 1.11-0.025 2.243-0.542 3.239s-1.334 1.803-2.336 2.308c-1.002 0.504-2.138 0.68-3.245 0.502s-2.131-0.701-2.924-1.494c-0.793-0.793-1.316-1.816-1.494-2.924s-0.003-2.243 0.502-3.245c0.504-1.002 1.312-1.82 2.307-2.336s2.129-0.706 3.239-0.542c1.132 0.168 2.18 0.695 2.989 1.504s1.337 1.857 1.505 2.989z"></path>
<path fill="none" stroke="#fff" style="stroke: var(--color1, #fff)" stroke-linejoin="round" stroke-linecap="round" stroke-miterlimit="4" stroke-width="2.6667" d="M23.333 8.667h0.013"></path>
</symbol>
<symbol id="icon-Vector-7" viewBox="0 0 19 32">
<path fill="none" stroke="#fff" style="stroke: var(--color1, #fff)" stroke-linejoin="round" stroke-linecap="round" stroke-miterlimit="4" stroke-width="2.9091" d="M17.455 1.455h-4.364c-1.929 0-3.779 0.766-5.143 2.13s-2.13 3.214-2.13 5.143v4.364h-4.364v5.818h4.364v11.636h5.818v-11.636h4.364l1.455-5.818h-5.818v-4.364c0-0.386 0.153-0.756 0.426-1.029s0.643-0.426 1.028-0.426h4.364v-5.818z"></path>
</symbol>
<symbol id="icon-Vector-6" viewBox="0 0 37 32">
<path fill="none" stroke="#fff" style="stroke: var(--color1, #fff)" stroke-linejoin="round" stroke-linecap="round" stroke-miterlimit="4" stroke-width="3.0476" d="M35.048 3.047c-1.459 1.029-3.075 1.817-4.785 2.331-0.918-1.055-2.137-1.803-3.494-2.143s-2.785-0.254-4.091 0.245c-1.306 0.499-2.428 1.387-3.214 2.544s-1.197 2.527-1.178 3.926v1.524c-2.678 0.069-5.331-0.524-7.724-1.729s-4.451-2.982-5.99-5.174c0 0-6.095 13.714 7.619 19.81-3.138 2.13-6.877 3.198-10.667 3.048 13.714 7.619 30.476 0 30.476-17.524 0-0.427-0.046-0.853-0.122-1.265 1.555-1.534 2.653-3.47 3.17-5.592z"></path>
</symbol>
<symbol id="icon-IMAGE-6" viewBox="0 0 34 32">
<path fill="#fcff51" style="fill: var(--color2, #fcff51)" d="M16.965 25.784l7.812 4.725c1.431 0.866 3.181-0.414 2.805-2.033l-2.071-8.885 6.908-5.986c1.261-1.092 0.584-3.162-1.073-3.294l-9.092-0.772-3.558-8.395c-0.64-1.525-2.824-1.525-3.464 0l-3.558 8.376-9.092 0.772c-1.656 0.132-2.334 2.202-1.073 3.294l6.908 5.986-2.071 8.885c-0.376 1.619 1.374 2.899 2.805 2.033l7.812-4.706z"></path>
</symbol>
</defs>
</svg>
